<?xml version="1.0" encoding="utf-8"?>
<!-- Generator: Adobe Illustrator 16.0.0, SVG Export Plug-In . SVG Version: 6.00 Build 0)  -->
<!DOCTYPE svg PUBLIC "-//W3C//DTD SVG 1.1//EN" "http://www.w3.org/Graphics/SVG/1.1/DTD/svg11.dtd">
<svg version="1.1" id="Ebene_1" xmlns="http://www.w3.org/2000/svg" xmlns:xlink="http://www.w3.org/1999/xlink" x="0px" y="0px"
	 width="500.441px" height="89.199px" viewBox="0 0 500.441 89.199" enable-background="new 0 0 500.441 89.199"
	 xml:space="preserve">
<g>
	<path fill="#FFFFFF" d="M137.164,58.094v2.07h5.94c-0.09,1.23-0.3,2.01-0.81,2.82c-1.2,2.01-3.75,3.42-6.15,3.42
		c-4.44,0-8.13-3.689-8.13-8.189c0-4.65,3.66-8.311,8.31-8.311c2.64,0,4.71,1.17,6.66,3.75l1.65-1.5
		c-2.55-3.029-5.04-4.35-8.31-4.35c-5.88,0-10.56,4.59-10.56,10.381c0,5.639,4.65,10.318,10.26,10.318c2.97,0,5.82-1.35,7.62-3.6
		c1.35-1.68,1.86-3.449,1.86-6.299v-0.512H137.164L137.164,58.094z M158.77,47.805c-5.73,0-10.44,4.68-10.44,10.381
		c0,5.699,4.68,10.318,10.44,10.318c5.67,0,10.38-4.68,10.38-10.35S164.44,47.805,158.77,47.805L158.77,47.805z M158.74,49.904
		c4.53,0,8.16,3.689,8.16,8.281c0,4.529-3.66,8.219-8.16,8.219s-8.16-3.689-8.16-8.219C150.58,53.564,154.21,49.904,158.74,49.904
		L158.74,49.904z M155.89,43.095c-0.84,0-1.53,0.69-1.53,1.53c0,0.84,0.69,1.529,1.53,1.529s1.53-0.689,1.53-1.529
		C157.42,43.785,156.73,43.095,155.89,43.095L155.89,43.095z M161.59,43.095c-0.84,0-1.53,0.69-1.53,1.53
		c0,0.84,0.69,1.529,1.53,1.529c0.84,0,1.53-0.689,1.53-1.529C163.12,43.785,162.43,43.095,161.59,43.095L161.59,43.095z
		 M176.8,50.205h4.86v-2.07h-11.94v2.07h4.83v17.939h2.25V50.205L176.8,50.205z M190.455,50.205h4.86v-2.07h-11.94v2.07h4.83v17.939
		h2.25V50.205L190.455,50.205z M200.358,48.135h-2.25v20.01h2.25V48.135L200.358,48.135z M205.481,68.145h2.25v-15.42l15.57,16.32
		v-20.91h-2.25v15.51l-15.57-16.35V68.145L205.481,68.145z M238.715,58.094v2.07h5.94c-0.09,1.23-0.3,2.01-0.81,2.82
		c-1.2,2.01-3.75,3.42-6.15,3.42c-4.44,0-8.13-3.689-8.13-8.189c0-4.65,3.66-8.311,8.31-8.311c2.64,0,4.71,1.17,6.66,3.75l1.65-1.5
		c-2.55-3.029-5.04-4.35-8.31-4.35c-5.88,0-10.56,4.59-10.56,10.381c0,5.639,4.65,10.318,10.26,10.318c2.97,0,5.82-1.35,7.62-3.6
		c1.35-1.68,1.86-3.449,1.86-6.299v-0.512H238.715L238.715,58.094z M261.387,50.205v-2.07h-10.352v20.01h10.352v-2.07h-8.102v-7.83
		h7.891v-2.07h-7.891v-5.969H261.387L261.387,50.205z M265.338,68.145h2.25v-15.42l15.568,16.32v-20.91h-2.25v15.51l-15.568-16.35
		V68.145L265.338,68.145z"/>
	<path fill="#FFFFFF" d="M137.164,24.095v2.07h5.94c-0.09,1.23-0.3,2.01-0.81,2.82c-1.2,2.01-3.75,3.42-6.15,3.42
		c-4.44,0-8.13-3.69-8.13-8.19c0-4.65,3.66-8.31,8.31-8.31c2.64,0,4.71,1.17,6.66,3.75l1.65-1.5c-2.55-3.03-5.04-4.35-8.31-4.35
		c-5.88,0-10.56,4.59-10.56,10.38c0,5.64,4.65,10.32,10.26,10.32c2.97,0,5.82-1.35,7.62-3.6c1.35-1.68,1.86-3.45,1.86-6.3v-0.51
		H137.164L137.164,24.095z M159.835,16.205v-2.07h-10.35v20.01h10.35v-2.07h-8.1v-7.83h7.89v-2.07h-7.89v-5.97H159.835
		L159.835,16.205z M172.96,13.805c-5.73,0-10.44,4.68-10.44,10.38s4.68,10.32,10.44,10.32c5.67,0,10.38-4.68,10.38-10.35
		C183.34,18.484,178.63,13.805,172.96,13.805L172.96,13.805z M172.93,15.905c4.53,0,8.16,3.69,8.16,8.28c0,4.53-3.66,8.22-8.16,8.22
		s-8.16-3.69-8.16-8.22C164.77,19.564,168.4,15.905,172.93,15.905L172.93,15.905z M192.54,25.205c3.09-0.3,5.04-2.43,5.04-5.55
		c0-1.8-0.87-3.51-2.22-4.44c-1.14-0.78-2.52-1.08-4.8-1.08h-3.24v20.01h2.25v-8.76h0.57l6.03,8.76h2.73L192.54,25.205
		L192.54,25.205z M189.57,23.405v-7.2h1.32c2.94,0,4.5,1.2,4.5,3.45c0,2.46-1.53,3.75-4.41,3.75H189.57L189.57,23.405z
		 M211.971,24.095v2.07h5.94c-0.09,1.23-0.3,2.01-0.81,2.82c-1.2,2.01-3.75,3.42-6.15,3.42c-4.44,0-8.13-3.69-8.13-8.19
		c0-4.65,3.66-8.31,8.31-8.31c2.64,0,4.71,1.17,6.66,3.75l1.65-1.5c-2.55-3.03-5.04-4.35-8.31-4.35c-5.88,0-10.56,4.59-10.56,10.38
		c0,5.64,4.65,10.32,10.26,10.32c2.97,0,5.82-1.35,7.62-3.6c1.35-1.68,1.86-3.45,1.86-6.3v-0.51H211.971L211.971,24.095z
		 M223.296,24.294v1.92h5.43v-1.92H223.296L223.296,24.294z M243.216,28.475l2.37,5.67h2.46l-9-20.97l-9.21,20.97h2.43l2.4-5.67
		H243.216L243.216,28.475z M242.346,26.405h-6.75l3.42-8.01L242.346,26.405L242.346,26.405z M252.068,14.135h-2.25v12.87
		c0,2.19,0.36,3.51,1.32,4.74c1.291,1.71,3.51,2.76,5.82,2.76c2.279,0,4.471-1.05,5.791-2.76c0.959-1.23,1.318-2.58,1.318-4.74
		v-12.87h-2.25v12.27c0,2.07-0.148,2.97-0.66,3.84c-0.779,1.26-2.488,2.16-4.199,2.16c-1.74,0-3.449-0.9-4.23-2.16
		c-0.51-0.87-0.66-1.77-0.66-3.84V14.135L252.068,14.135z M279.354,24.095v2.07h5.941c-0.092,1.23-0.301,2.01-0.811,2.82
		c-1.201,2.01-3.75,3.42-6.15,3.42c-4.439,0-8.131-3.69-8.131-8.19c0-4.65,3.66-8.31,8.311-8.31c2.641,0,4.711,1.17,6.66,3.75
		l1.65-1.5c-2.551-3.03-5.041-4.35-8.311-4.35c-5.879,0-10.561,4.59-10.561,10.38c0,5.64,4.65,10.32,10.262,10.32
		c2.969,0,5.818-1.35,7.619-3.6c1.35-1.68,1.859-3.45,1.859-6.3v-0.51H279.354L279.354,24.095z M293.791,14.135h-2.25v12.87
		c0,2.19,0.359,3.51,1.318,4.74c1.291,1.71,3.51,2.76,5.82,2.76c2.281,0,4.471-1.05,5.791-2.76c0.959-1.23,1.32-2.58,1.32-4.74
		v-12.87h-2.25v12.27c0,2.07-0.15,2.97-0.66,3.84c-0.781,1.26-2.49,2.16-4.201,2.16c-1.74,0-3.449-0.9-4.23-2.16
		c-0.51-0.87-0.658-1.77-0.658-3.84V14.135L293.791,14.135z M321.244,16.925c-1.199-2.07-2.908-3.12-5.158-3.12
		c-3.182,0-5.611,2.22-5.611,5.13c0,2.25,1.17,3.66,4.051,4.95l0.6,0.27l0.6,0.27l0.6,0.3c0.66,0.27,1.23,0.57,1.74,0.9
		c1.111,0.69,1.65,1.62,1.65,2.85c0,2.22-1.77,3.93-4.08,3.93c-2.1,0-3.48-1.26-4.02-3.66l-2.16,0.6c0.779,3.3,3,5.16,6.211,5.16
		c3.539,0,6.299-2.73,6.299-6.18c0-2.49-1.32-4.08-4.529-5.49l-0.631-0.27l-0.629-0.27l-0.631-0.3c-0.57-0.24-1.08-0.54-1.561-0.84
		c-0.84-0.57-1.26-1.29-1.26-2.16c0-1.77,1.441-3.09,3.301-3.09c1.561,0,2.43,0.54,3.449,2.16L321.244,16.925L321.244,16.925z
		 M330.807,16.205h4.859v-2.07h-11.939v2.07h4.83v17.94h2.25V16.205L330.807,16.205z M335.75,24.294v1.92h5.43v-1.92H335.75
		L335.75,24.294z M347.102,14.135h-2.25v12.87c0,2.19,0.361,3.51,1.32,4.74c1.291,1.71,3.51,2.76,5.82,2.76
		c2.279,0,4.471-1.05,5.789-2.76c0.961-1.23,1.32-2.58,1.32-4.74v-12.87h-2.25v12.27c0,2.07-0.15,2.97-0.66,3.84
		c-0.779,1.26-2.49,2.16-4.199,2.16c-1.74,0-3.449-0.9-4.23-2.16c-0.51-0.87-0.66-1.77-0.66-3.84V14.135L347.102,14.135z
		 M364.23,34.145h2.25v-15.42l15.57,16.32v-20.91h-2.25v15.51l-15.57-16.35V34.145L364.23,34.145z M389.471,14.135h-2.25v20.01h2.25
		V14.135L389.471,14.135z M394.592,14.135h-2.461l8.1,21.18l8.131-21.18h-2.43l-5.67,15.24L394.592,14.135L394.592,14.135z
		 M421.402,16.205v-2.07h-10.352v20.01h10.352v-2.07h-8.102v-7.83h7.891v-2.07h-7.891v-5.97H421.402L421.402,16.205z
		 M430.572,25.205c3.09-0.3,5.039-2.43,5.039-5.55c0-1.8-0.869-3.51-2.219-4.44c-1.141-0.78-2.52-1.08-4.801-1.08h-3.24v20.01h2.25
		v-8.76h0.57l6.029,8.76h2.73L430.572,25.205L430.572,25.205z M427.602,23.405v-7.2h1.32c2.939,0,4.5,1.2,4.5,3.45
		c0,2.46-1.529,3.75-4.41,3.75H427.602L427.602,23.405z M450.393,16.925c-1.199-2.07-2.91-3.12-5.16-3.12
		c-3.18,0-5.609,2.22-5.609,5.13c0,2.25,1.17,3.66,4.051,4.95l0.6,0.27l0.6,0.27l0.6,0.3c0.66,0.27,1.23,0.57,1.74,0.9
		c1.109,0.69,1.65,1.62,1.65,2.85c0,2.22-1.77,3.93-4.08,3.93c-2.1,0-3.48-1.26-4.02-3.66l-2.16,0.6c0.779,3.3,3,5.16,6.209,5.16
		c3.541,0,6.301-2.73,6.301-6.18c0-2.49-1.32-4.08-4.529-5.49l-0.631-0.27l-0.631-0.27l-0.629-0.3c-0.57-0.24-1.08-0.54-1.561-0.84
		c-0.84-0.57-1.26-1.29-1.26-2.16c0-1.77,1.439-3.09,3.301-3.09c1.559,0,2.43,0.54,3.449,2.16L450.393,16.925L450.393,16.925z
		 M457.361,14.135h-2.25v20.01h2.25V14.135L457.361,14.135z M467.189,16.205h4.861v-2.07h-11.941v2.07h4.83v17.94h2.25V16.205
		L467.189,16.205z M484.541,28.475l2.369,5.67h2.461l-9-20.97l-9.211,20.97h2.432l2.398-5.67H484.541L484.541,28.475z
		 M483.672,26.405h-6.75l3.42-8.01L483.672,26.405L483.672,26.405z M477.611,9.095c-0.84,0-1.531,0.69-1.531,1.53
		s0.691,1.53,1.531,1.53s1.529-0.69,1.529-1.53S478.451,9.095,477.611,9.095L477.611,9.095z M483.311,9.095
		c-0.84,0-1.529,0.69-1.529,1.53s0.689,1.53,1.529,1.53s1.531-0.69,1.531-1.53S484.15,9.095,483.311,9.095L483.311,9.095z
		 M495.58,16.205h4.861v-2.07h-11.939v2.07h4.828v17.94h2.25V16.205L495.58,16.205z"/>
	<path fill="#63B9E9" d="M82.943,0L58.639,52.791c-2.803,4.994-8.099,8.398-14.236,8.398v9.07c10.813,0,20.039-6.744,23.729-16.254
		h28.462l11.163,25.211h10.878L82.943,0L82.943,0z M82.773,22.268l9.769,22.396H71.826L82.773,22.268L82.773,22.268z"/>
	<path fill="#FFFFFF" d="M65.016,17.144l4.26-9.135C62.18,3.202,53.62,0.392,44.403,0.392C19.88,0.392,0,20.272,0,44.795
		c0,24.523,19.88,44.404,44.403,44.404c21.365,0,39.2-15.09,43.441-35.193H77.65c-4.035,14.59-17.373,25.318-33.247,25.318
		c-19.069,0-34.527-15.459-34.527-34.529c0-19.068,15.458-34.526,34.527-34.526C52.141,10.269,59.259,12.845,65.016,17.144
		L65.016,17.144z M44.403,54.004h13.448c0.271-0.398,0.551-0.791,0.788-1.213l3.747-8.141H44.403V54.004L44.403,54.004z"/>
</g>
</svg>
